<svg id="Layer_1" data-name="Layer 1" xmlns="http://www.w3.org/2000/svg" viewBox="0 0 464.71 237.73"><defs><style>.cls-1{fill:#fff;}</style></defs><title>logo branco</title><path class="cls-1" d="M251.41,142.67l-4.88,16.7h-11l17.72-56.25a3.86,3.86,0,0,1,3.85-2.83h10.45a3.86,3.86,0,0,1,3.85,2.83l17.72,56.25h-11l-4.88-16.7Zm13.44-29.2c-.43-1.63-1-3.42-1.28-5.05h-2.31l-1.37,5.05L254,133.85h16.78Z" transform="translate(-26.67 -14.45)"/><path class="cls-1" d="M358.94,127.86v31.51H348.75V131c-.08-4.28-1.28-6-5.22-6-3.51,0-5.82,1.28-11.3,5.05v29.28h-10V131c.09-4.54-1.63-6-5.22-6-3.25,0-5.57,1.2-11.22,5v29.37H295.41v-42h8.48l.69,6.16c5.39-4.79,10.53-7.36,16.35-7.36,5.65,0,9.25,2.4,10.7,7,5.22-4.71,10.36-7,15.92-7C355,116.21,358.94,120.32,358.94,127.86Z" transform="translate(-26.67 -14.45)"/><path class="cls-1" d="M409.88,138.39c0,16.1-5.57,22.09-20.63,22.09s-20.8-6-20.8-22.09,5.65-22.17,20.8-22.17S409.88,122.29,409.88,138.39Zm-30.57,0c0,10.79,2.23,13.79,9.93,13.79,7.53,0,9.85-3,9.85-13.79s-2.31-13.87-9.85-13.87C381.54,124.52,379.31,127.51,379.31,138.39Z" transform="translate(-26.67 -14.45)"/><path class="cls-1" d="M446.95,126h-3c-4,0-7.88,1.37-13.87,3.68v29.71H419.63v-42h8.13l.94,6.16c5.74-4.71,11.82-7.36,17.29-7.36h2.05Z" transform="translate(-26.67 -14.45)"/><path class="cls-1" d="M491.38,130.85v28.51h-8.22L482,153a21.94,21.94,0,0,1-16,7.28c-7.71,0-13.27-4.28-13.27-12.16v-4.28c0-6.68,4.54-10.53,12.41-10.53h15.75v-2.57c-.09-4.79-1.71-6-7.71-6-3.85,0-11,.34-17.55.86l-1-7.36a139.09,139.09,0,0,1,21-2.05C486,116.21,491.38,119.64,491.38,130.85Zm-28.25,15.92c0,3.6,1.71,5.14,5.48,5.14a20.37,20.37,0,0,0,12.33-5v-6.51H467.58c-3.42.17-4.45,1.88-4.45,4.71Z" transform="translate(-26.67 -14.45)"/><path class="cls-1" d="M245.85,238.2a6.74,6.74,0,0,0,7,7h23.29v1.54c-7.88.34-15.84.34-23.72.34a8.46,8.46,0,0,1-8.73-8.73V188h2.14Z" transform="translate(-26.67 -14.45)"/><path class="cls-1" d="M316.82,216.46v30.65h-1.54l-.43-8c-3.51,3.6-12.07,8.48-19.95,8.48-6.76,0-10.7-3.68-10.7-10.36V232c0-6.16,3.6-9.67,9.85-9.67h20.72v-5.82c0-5.22-2.14-9.5-9.42-9.5a160.64,160.64,0,0,0-19.26,1.37l-.26-1.54a121.79,121.79,0,0,1,19.61-1.8C312.45,205,316.82,208.24,316.82,216.46Zm-2.05,20.63V224l-20.72.34c-5.05.09-7.71,2.74-7.71,7.62v5.31c0,5.39,2.91,8.22,8.56,8.3C301.41,245.74,310.05,241.63,314.76,237.09Z" transform="translate(-26.67 -14.45)"/><path class="cls-1" d="M366.39,226.56c0,15.58-4.62,21.58-16.61,21.58a65.83,65.83,0,0,1-17.29-2.65v-58.3h2.05v18.58a57.85,57.85,0,0,1-.26,8c6.08-5.39,11.56-8.73,17.21-8.73C362.28,205,366.39,211,366.39,226.56Zm-2.14,0c0-14.38-3.6-19.61-12.76-19.61-5.39,0-10.1,2.91-17,8.56V244a53.85,53.85,0,0,0,15.24,2.14C360.14,246.17,364.25,240.95,364.25,226.56Z" transform="translate(-26.67 -14.45)"/><path class="cls-1" d="M408.76,206l-.26,1.54c-5.05-.34-10.62-.6-15.67-.69-9.16-.17-13.1.09-13.1,9,0,6.08,2.48,8.13,6.85,8.65l13.87,1.71c6,.77,9.33,3.94,9.33,10.45,0,10.45-5.82,11.39-16.18,11.39a102.75,102.75,0,0,1-14.9-.94l.26-1.54a120.45,120.45,0,0,0,14.73.6c10.27-.17,14-1.28,14-9.5,0-6-3.17-8-7.28-8.48l-13.87-1.71c-5.74-.68-8.9-3.51-8.9-10.62,0-10.36,5.14-11,15.15-10.87C397.81,205.07,403.71,205.41,408.76,206Z" transform="translate(-26.67 -14.45)"/><circle class="cls-1" cx="89.97" cy="109.3" r="14.61"/><circle class="cls-1" cx="26.85" cy="164.11" r="26.85"/><circle class="cls-1" cx="152.98" cy="164.11" r="26.86"/><circle class="cls-1" cx="60.87" cy="210.74" r="26.99"/><path class="cls-1" d="M102.07,90.48s-1.88-35.29,19.22-56.73S178,14.52,178,14.52s5.5,34.06-18.16,57.8S102.07,90.48,102.07,90.48Z" transform="translate(-26.67 -14.45)"/><path class="cls-1" d="M71.7,96.84A26.91,26.91,0,1,0,98.6,123.75,26.91,26.91,0,0,0,71.7,96.84Zm0,44.35a17.44,17.44,0,1,1,17.44-17.44A17.44,17.44,0,0,1,71.7,141.19Z" transform="translate(-26.67 -14.45)"/><path class="cls-1" d="M145.74,198.21a27,27,0,1,0,27,27A27,27,0,0,0,145.74,198.21Zm0,43.41a16.42,16.42,0,1,1,16.42-16.42A16.42,16.42,0,0,1,145.74,241.61Z" transform="translate(-26.67 -14.45)"/><path class="cls-1" d="M161.67,96.9a26.85,26.85,0,1,0,26.85,26.85A26.85,26.85,0,0,0,161.67,96.9Zm0,44.29a17.44,17.44,0,1,1,17.44-17.44A17.44,17.44,0,0,1,161.67,141.19Z" transform="translate(-26.67 -14.45)"/><circle class="cls-1" cx="90.32" cy="158.34" r="20.83"/></svg>